<?xml version="1.0" encoding="UTF-8" standalone="no"?>
<!-- Created with Inkscape (http://www.inkscape.org/) -->

<svg
   version="1.1"
   id="svg9"
   width="162.42957"
   height="170.80884"
   viewBox="0 0 162.42957 170.80883"
   sodipodi:docname="flow_new_inkscape.svg"
   inkscape:version="1.2.2 (732a01da63, 2022-12-09)"
   xmlns:inkscape="http://www.inkscape.org/namespaces/inkscape"
   xmlns:sodipodi="http://sodipodi.sourceforge.net/DTD/sodipodi-0.dtd"
   xmlns="http://www.w3.org/2000/svg"
   xmlns:svg="http://www.w3.org/2000/svg">
  <defs
     id="defs13" />
  <sodipodi:namedview
     id="namedview11"
     pagecolor="#ffffff"
     bordercolor="#000000"
     borderopacity="0.25"
     inkscape:showpageshadow="2"
     inkscape:pageopacity="0.0"
     inkscape:pagecheckerboard="true"
     inkscape:deskcolor="#d1d1d1"
     showgrid="true"
     inkscape:zoom="1.0970351"
     inkscape:cx="1231.5012"
     inkscape:cy="855.94345"
     inkscape:window-width="1920"
     inkscape:window-height="1017"
     inkscape:window-x="1912"
     inkscape:window-y="-8"
     inkscape:window-maximized="1"
     inkscape:current-layer="g15"
     showguides="false">
    <inkscape:grid
       type="xygrid"
       id="grid784" />
  </sodipodi:namedview>
  <g
     inkscape:groupmode="layer"
     inkscape:label="Image"
     id="g15"
     transform="translate(-559.53584,-647.63378)">
    <g
       aria-label="CAUSALITY"
       transform="scale(0.86132365,1.1610038)"
       id="text420-9-0"
       style="font-size:20.3936px;letter-spacing:3.82381px;fill:#3c4ccc;stroke-width:0.764761">
      <path
         d="m 682.0266,694.57318 q -0.54768,0.23898 -0.99578,0.4481 -0.43814,0.20911 -1.1551,0.43814 -0.60743,0.1892 -1.32439,0.31865 -0.70701,0.13941 -1.56338,0.13941 -1.61316,0 -2.93755,-0.4481 -1.31443,-0.45806 -2.2903,-1.42397 -0.95595,-0.94599 -1.49367,-2.39983 -0.53772,-1.4638 -0.53772,-3.39561 0,-1.83224 0.5178,-3.27612 0.51781,-1.44389 1.49367,-2.43967 0.946,-0.96591 2.28034,-1.47376 1.34431,-0.50784 2.97739,-0.50784 1.19494,0 2.37992,0.28877 1.19493,0.28878 2.64877,1.0157 v 2.34009 h -0.14936 q -1.22481,-1.02566 -2.42971,-1.49368 -1.20489,-0.46801 -2.57907,-0.46801 -1.12524,0 -2.0314,0.36844 -0.8962,0.35848 -1.6032,1.12523 -0.68709,0.74683 -1.07545,1.89198 -0.37839,1.13519 -0.37839,2.62887 0,1.56337 0.41822,2.68861 0.42819,1.12523 1.09536,1.83223 0.69705,0.73688 1.62313,1.09536 0.93603,0.34853 1.97164,0.34853 1.42397,0 2.6687,-0.48794 1.24472,-0.48793 2.33012,-1.4638 h 0.13941 z"
         id="path2409" />
      <path
         d="m 700.32907,695.64862 h -2.10109 l -1.45385,-4.13249 h -6.41283 l -1.45384,4.13249 h -2.00152 l 5.39714,-14.82718 h 2.62886 z m -4.16236,-5.82532 -2.59899,-7.27916 -2.60895,7.27916 z"
         id="path2411" />
      <path
         d="m 717.46648,689.69385 q 0,1.61316 -0.35848,2.81806 -0.34852,1.19494 -1.15511,1.99156 -0.76675,0.7568 -1.7924,1.10532 -1.02566,0.34852 -2.38988,0.34852 -1.39409,0 -2.4297,-0.36844 -1.03562,-0.36844 -1.74262,-1.0854 -0.80658,-0.81654 -1.16507,-1.97164 -0.34852,-1.15511 -0.34852,-2.83798 v -8.87241 h 1.97165 v 8.97199 q 0,1.20489 0.15932,1.90194 0.16929,0.69705 0.55764,1.26464 0.43814,0.64726 1.18498,0.97587 0.75679,0.3286 1.81232,0.3286 1.06549,0 1.81232,-0.31865 0.74684,-0.3286 1.19494,-0.98582 0.38836,-0.56759 0.54768,-1.29451 0.16928,-0.73688 0.16928,-1.82228 v -9.02178 h 1.97165 z"
         id="path2413" />
      <path
         d="m 735.8287,691.41655 q 0,0.86633 -0.40827,1.71274 -0.39831,0.84642 -1.12523,1.43393 -0.79663,0.6373 -1.86212,0.99578 -1.05552,0.35848 -2.5492,0.35848 -1.6032,0 -2.88776,-0.29873 -1.2746,-0.29874 -2.59899,-0.88625 v -2.46954 h 0.13941 q 1.12523,0.93604 2.59899,1.44389 1.47375,0.50785 2.76827,0.50785 1.83224,0 2.84793,-0.68709 1.02566,-0.68709 1.02566,-1.83224 0,-0.98582 -0.48793,-1.45384 -0.47798,-0.46802 -1.4638,-0.72692 -0.74684,-0.19916 -1.62313,-0.32861 -0.86633,-0.12945 -1.84219,-0.32861 -1.97165,-0.41823 -2.9276,-1.42396 -0.94599,-1.0157 -0.94599,-2.63883 0,-1.86211 1.57333,-3.04709 1.57334,-1.19493 3.99309,-1.19493 1.56337,0 2.86785,0.29873 1.30447,0.29874 2.31021,0.73688 v 2.33013 h -0.13941 q -0.84641,-0.71697 -2.23055,-1.18498 -1.37418,-0.47798 -2.81806,-0.47798 -1.58329,0 -2.5492,0.65722 -0.95595,0.65721 -0.95595,1.69283 0,0.92607 0.47797,1.45384 0.47798,0.52776 1.68287,0.80658 0.6373,0.13941 1.81233,0.33857 1.17502,0.19915 1.99156,0.40827 1.653,0.43814 2.48945,1.32438 0.83646,0.88625 0.83646,2.4795 z"
         id="path2415" />
      <path
         d="m 754.31041,695.64862 h -2.1011 l -1.45384,-4.13249 h -6.41283 l -1.45384,4.13249 h -2.00152 l 5.39713,-14.82718 h 2.62886 z m -4.16237,-5.82532 -2.59899,-7.27916 -2.60894,7.27916 z"
         id="path2417" />
      <path
         d="m 769.76494,695.64862 h -9.38026 v -14.82718 h 1.97165 v 13.07461 h 7.40861 z"
         id="path2419" />
      <path
         d="m 780.78825,695.64862 h -5.85519 v -1.51359 h 1.94177 v -11.80001 h -1.94177 v -1.51358 h 5.85519 v 1.51358 h -1.94177 v 11.80001 h 1.94177 z"
         id="path2421" />
      <path
         d="m 798.54304,682.57401 h -5.29756 v 13.07461 h -1.97164 v -13.07461 h -5.29756 v -1.75257 h 12.56676 z"
         id="path2423" />
      <path
         d="m 814.85395,680.82144 -5.21789,8.32473 v 6.50245 h -1.97165 v -6.29334 l -5.23781,-8.53384 h 2.18076 l 4.05283,6.6319 4.09266,-6.6319 z"
         id="path2425" />
    </g>
    <path
       style="fill:#1100ee;fill-opacity:1"
       d="m 701.24523,697.77622 -14.27656,-14.00639 -31.51441,32.1223 -14.14149,0.13499 -0.13509,-14.14148 31.51441,-32.1223 -14.27657,-14.00639 42.42441,-0.40526 z"
       id="path840-0"
       sodipodi:nodetypes="ccccccccc" />
    <path
       style="fill:#1100ee;fill-opacity:1"
       d="m 659.42859,780.25895 14.00639,-14.27658 -32.1223,-31.51441 -0.135,-14.14148 14.14148,-0.13509 32.1223,31.51441 14.00646,-14.27657 0.4052,42.42444 z"
       id="path840-0-5"
       sodipodi:nodetypes="ccccccccc" />
    <path
       style="fill:#1100ee;fill-opacity:1"
       d="m 576.22254,738.13833 14.27658,14.00639 31.51444,-32.1223 14.1415,-0.13499 0.135,14.14148 -31.51436,32.12229 14.27656,14.0065 -42.42442,0.4052 z"
       id="path840-0-5-3"
       sodipodi:nodetypes="ccccccccc" />
    <path
       style="fill:#1100ee;fill-opacity:1"
       d="m 593.86549,716.02712 14.00639,-14.27657 -32.1223,-31.51445 -0.135,-14.14149 14.14148,-0.135 32.1223,31.51436 14.0065,-14.27656 0.4052,42.42442 z"
       id="path840-0-5-3-1"
       sodipodi:nodetypes="ccccccccc" />
    <rect
       style="fill:none;fill-opacity:1;stroke-width:0.959914"
       id="rect1282-5"
       width="162.42955"
       height="170.80884"
       x="559.53589"
       y="647.63379" />
  </g>
</svg>
